<svg width="50" height="50" viewBox="0 0 50 50" fill="none" xmlns="http://www.w3.org/2000/svg">
<circle cx="25" cy="25" r="25" fill="#CCCCCC"/>
<path d="M36.19 10H14.72C14.3633 9.9987 14.0098 10.0678 13.6798 10.2034C13.3499 10.339 13.05 10.5384 12.7973 10.7902C12.5446 11.042 12.344 11.3412 12.2072 11.6706C12.0704 12.0001 12 12.3533 12 12.71V38.44C12.0038 38.8163 12.1138 39.184 12.3172 39.5006C12.5207 39.8173 12.8093 40.0701 13.15 40.23C13.4106 40.3487 13.6936 40.4101 13.98 40.41C14.4485 40.4081 14.9015 40.2418 15.26 39.94L25.45 31.2L35.65 39.94C35.9401 40.1725 36.2892 40.3196 36.6582 40.3647C37.0272 40.4098 37.4015 40.3512 37.739 40.1954C38.0766 40.0396 38.364 39.7929 38.5691 39.4828C38.7741 39.1727 38.8887 38.8116 38.9 38.44V12.71C38.9 11.9913 38.6145 11.302 38.1062 10.7938C37.598 10.2855 36.9087 10 36.19 10V10ZM37.3 38.44C37.3 38.5106 37.2804 38.5798 37.2433 38.6399C37.2062 38.6999 37.1531 38.7484 37.09 38.78C37.0247 38.8099 36.9521 38.8202 36.8811 38.8095C36.81 38.7989 36.7436 38.7678 36.69 38.72V38.72L25.97 29.54C25.8289 29.4247 25.6523 29.3617 25.47 29.3617C25.2878 29.3617 25.1111 29.4247 24.97 29.54L14.26 38.72C14.2066 38.769 14.14 38.8012 14.0685 38.8127C13.997 38.8241 13.9237 38.8143 13.8576 38.7845C13.7916 38.7547 13.7358 38.7062 13.6971 38.6449C13.6584 38.5837 13.6386 38.5124 13.64 38.44V12.71C13.6426 12.4147 13.7618 12.1324 13.9715 11.9245C14.1813 11.7166 14.4647 11.6 14.76 11.6H36.23C36.3757 11.6 36.5201 11.6287 36.6548 11.6845C36.7894 11.7403 36.9118 11.8221 37.0149 11.9251C37.1179 12.0282 37.1997 12.1506 37.2555 12.2852C37.3113 12.4199 37.34 12.5642 37.34 12.71L37.3 38.44Z" fill="black"/>
</svg>
