<svg width="50" height="50" viewBox="0 0 50 50" fill="none" xmlns="http://www.w3.org/2000/svg">
<circle cx="25" cy="25" r="25" fill="black"/>
<path d="M33.1556 37H17.8444C15.7285 37 14 35.2715 14 33.1556V17.8444C14 15.7285 15.7285 14 17.8444 14H33.1556C35.2715 14 37 15.7285 37 17.8444V33.1556C37 35.2809 35.2809 37 33.1556 37Z" fill="white"/>
<path d="M25.5047 31.4082C23.9273 31.4082 22.4444 30.7942 21.3298 29.6797C20.2152 28.5651 19.6013 27.0821 19.6013 25.5047C19.6013 23.9273 20.2152 22.4444 21.3298 21.3298C22.4444 20.2152 23.9273 19.6012 25.5047 19.6012C27.0822 19.6012 28.5651 20.2152 29.6797 21.3298C30.7943 22.4444 31.4082 23.9273 31.4082 25.5047C31.4082 27.0821 30.7943 28.5651 29.6797 29.6797C28.5557 30.7942 27.0822 31.4082 25.5047 31.4082ZM25.5047 20.8575C22.945 20.8575 20.8575 22.9355 20.8575 25.5047C20.8575 28.0645 22.9355 30.1519 25.5047 30.1519C28.0645 30.1519 30.152 28.0739 30.152 25.5047C30.1425 22.945 28.0645 20.8575 25.5047 20.8575Z" fill="black"/>
<path d="M32.5589 19.4072C33.1849 19.4072 33.6924 18.8998 33.6924 18.2737C33.6924 17.6477 33.1849 17.1402 32.5589 17.1402C31.9329 17.1402 31.4254 17.6477 31.4254 18.2737C31.4254 18.8998 31.9329 19.4072 32.5589 19.4072Z" fill="black"/>
</svg>
