<svg width="38" height="38" viewBox="0 0 38 38" fill="none" xmlns="http://www.w3.org/2000/svg">
<path d="M10.6875 15.623C10.6875 16.0955 10.8752 16.5485 11.2092 16.8826C11.5433 17.2166 11.9963 17.4043 12.4688 17.4043C12.9412 17.4043 13.3942 17.2166 13.7283 16.8826C14.0623 16.5485 14.25 16.0955 14.25 15.623C14.25 15.1506 14.0623 14.6976 13.7283 14.3635C13.3942 14.0295 12.9412 13.8418 12.4688 13.8418C11.9963 13.8418 11.5433 14.0295 11.2092 14.3635C10.8752 14.6976 10.6875 15.1506 10.6875 15.623ZM23.75 15.623C23.75 16.0955 23.9377 16.5485 24.2717 16.8826C24.6058 17.2166 25.0588 17.4043 25.5313 17.4043C26.0037 17.4043 26.4567 17.2166 26.7908 16.8826C27.1248 16.5485 27.3125 16.0955 27.3125 15.623C27.3125 15.1506 27.1248 14.6976 26.7908 14.3635C26.4567 14.0295 26.0037 13.8418 25.5312 13.8418C25.0588 13.8418 24.6058 14.0295 24.2717 14.3635C23.9377 14.6976 23.75 15.1506 23.75 15.623ZM19 2.375C9.81914 2.375 2.375 9.81914 2.375 19C2.375 28.1809 9.81914 35.625 19 35.625C28.1809 35.625 35.625 28.1809 35.625 19C35.625 9.81914 28.1809 2.375 19 2.375ZM28.7598 28.7598C27.4906 30.0289 26.0137 31.0234 24.3697 31.7211C22.6738 32.441 20.8666 32.8047 19 32.8047C17.1334 32.8047 15.3262 32.441 13.6266 31.7211C11.9851 31.0279 10.4941 30.0221 9.23652 28.7598C7.96738 27.4906 6.97285 26.0137 6.2752 24.3697C5.55898 22.6738 5.19531 20.8666 5.19531 19C5.19531 17.1334 5.55898 15.3262 6.27891 13.6266C6.97214 11.9851 7.97791 10.4941 9.24023 9.23652C10.5094 7.96738 11.9863 6.97285 13.6303 6.2752C15.3262 5.55898 17.1334 5.19531 19 5.19531C20.8666 5.19531 22.6738 5.55898 24.3734 6.27891C26.0149 6.97214 27.5059 7.97791 28.7635 9.24023C30.0326 10.5094 31.0271 11.9863 31.7248 13.6303C32.441 15.3262 32.8047 17.1334 32.8047 19C32.8047 20.8666 32.441 22.6738 31.7211 24.3734C31.0287 26.0143 30.0228 27.5042 28.7598 28.7598ZM24.6406 19.7793H22.8557C22.6998 19.7793 22.5662 19.898 22.5551 20.0539C22.4141 21.8908 20.874 23.3418 19 23.3418C17.126 23.3418 15.5822 21.8908 15.4449 20.0539C15.4338 19.898 15.3002 19.7793 15.1443 19.7793H13.3594C13.3191 19.7792 13.2793 19.7874 13.2422 19.8032C13.2052 19.8191 13.1718 19.8423 13.144 19.8714C13.1163 19.9006 13.0947 19.9351 13.0807 19.9728C13.0667 20.0106 13.0605 20.0508 13.0625 20.091C13.2258 23.2193 15.8271 25.7168 19 25.7168C22.1729 25.7168 24.7742 23.2193 24.9375 20.091C24.9395 20.0508 24.9333 20.0106 24.9193 19.9728C24.9053 19.9351 24.8837 19.9006 24.856 19.8714C24.8282 19.8423 24.7948 19.8191 24.7578 19.8032C24.7207 19.7874 24.6809 19.7792 24.6406 19.7793Z" fill="white"/>
</svg>
