<svg width="24" height="24" viewBox="0 0 24 24" fill="none" xmlns="http://www.w3.org/2000/svg">
<circle r="3.40426" transform="matrix(-1 0 0 1 12.2128 8.40419)" stroke="#2B3F6C" stroke-width="1.5"/>
<path d="M6.25533 16.8594C6.25533 16.1271 6.71563 15.474 7.40519 15.2277V15.2277C10.5141 14.1174 13.9115 14.1174 17.0204 15.2277V15.2277C17.7099 15.474 18.1702 16.1271 18.1702 16.8594V17.9789C18.1702 18.9895 17.2751 19.7658 16.2747 19.6229L15.9412 19.5753C13.4681 19.222 10.9574 19.222 8.48437 19.5753L8.15082 19.6229C7.15039 19.7658 6.25533 18.9895 6.25533 17.9789V16.8594Z" stroke="#2B3F6C" stroke-width="1.5"/>
<path d="M17.3192 11.9027C18.7964 11.9027 19.9939 10.7051 19.9939 9.2279C19.9939 7.75067 18.7964 6.55313 17.3192 6.55313" stroke="#2B3F6C" stroke-width="1.5" stroke-linecap="round"/>
<path d="M20.2486 18.005L20.5107 18.0424C21.2967 18.1547 22 17.5448 22 16.7507V15.8711C22 15.2958 21.6383 14.7825 21.0965 14.589C20.5561 14.396 20.0045 14.2457 19.4468 14.1381" stroke="#2B3F6C" stroke-width="1.5" stroke-linecap="round"/>
<path d="M6.68086 11.9027C5.20362 11.9027 4.00609 10.7051 4.00609 9.2279C4.00609 7.75067 5.20362 6.55313 6.68086 6.55313" stroke="#2B3F6C" stroke-width="1.5" stroke-linecap="round"/>
<path d="M3.7514 18.005L3.48932 18.0424C2.70327 18.1547 2 17.5448 2 16.7507V15.8711C2 15.2958 2.36167 14.7825 2.90347 14.589C3.44392 14.396 3.99546 14.2457 4.55319 14.1381" stroke="#2B3F6C" stroke-width="1.5" stroke-linecap="round"/>
</svg>
